<?xml version="1.0" standalone="no"?>
<!DOCTYPE svg PUBLIC "-//W3C//DTD SVG 20010904//EN"
 "http://www.w3.org/TR/2001/REC-SVG-20010904/DTD/svg10.dtd">
<svg version="1.0" xmlns="http://www.w3.org/2000/svg"
 width="988.000000pt" height="988.000000pt" viewBox="0 0 988.000000 988.000000"
 preserveAspectRatio="xMidYMid meet">
<metadata>
Created by potrace 1.11, written by Peter Selinger 2001-2013
</metadata>
<g transform="translate(0.000000,988.000000) scale(0.100000,-0.100000)"
fill="#000000" stroke="none">
<path d="M1349 9825 c-1 -79 1 -166 7 -215 10 -82 54 -234 90 -306 49 -99 659
-910 830 -1104 263 -297 557 -576 800 -757 198 -147 530 -365 724 -476 154
-87 526 -277 544 -277 4 0 25 -9 49 -19 125 -56 334 -124 442 -146 198 -38
341 -40 440 -7 33 11 63 18 67 16 7 -5 117 -133 136 -159 61 -84 90 -151 128
-300 13 -51 77 -282 90 -324 8 -29 18 -65 20 -79 3 -14 9 -33 15 -43 5 -10 5
-20 1 -23 -4 -2 -62 -7 -127 -11 -66 -3 -131 -8 -145 -10 -14 -2 -50 -6 -80
-10 -30 -3 -77 -10 -105 -15 -27 -5 -61 -11 -75 -14 -113 -19 -355 -92 -498
-150 -629 -255 -1154 -739 -1455 -1342 -60 -121 -147 -332 -147 -357 0 -9 -4
-18 -9 -21 -5 -3 -11 -16 -14 -28 -2 -13 -18 -77 -35 -143 -38 -146 -42 -165
-61 -290 -36 -242 -36 -603 0 -835 82 -525 320 -1037 664 -1425 136 -153 327
-329 460 -421 17 -11 53 -36 80 -55 329 -229 782 -401 1193 -454 209 -27 561
-27 752 0 515 74 978 275 1380 600 419 339 722 774 894 1285 31 94 55 174 62
206 1 7 9 43 17 80 45 200 62 362 62 599 -1 214 -8 310 -35 473 -118 685 -464
1271 -1019 1725 -203 165 -525 345 -791 440 -199 71 -490 139 -621 146 -25 1
-30 10 -64 104 -20 56 -44 122 -53 147 -9 25 -17 47 -18 50 0 3 -5 16 -11 30
-6 14 -38 109 -72 211 -39 117 -76 208 -101 249 -33 53 -141 199 -175 234 -6
6 -33 35 -60 65 l-50 53 -6 87 c-13 175 -110 366 -319 626 -72 91 -275 300
-396 412 -17 15 -49 44 -71 64 -169 155 -556 454 -768 594 -218 143 -504 288
-792 401 -65 25 -131 52 -148 59 -16 7 -111 41 -210 74 -202 70 -260 92 -600
233 -465 193 -496 210 -631 343 -68 68 -120 137 -158 210 l-25 50 -2 -50z"/>
</g>
</svg>
